# xmcd
#
# Track frame offsets:
# 182
# 16512
# 32837
# 51300
# 61137
# 79825
# 88600
# 101090
# 111280
# 118290
# 134522
# 147542
#
# Disc length: 2304 seconds
#
# Revision: 1
# Processed by: cddbd v1.5.1PL0 Copyright (c) Steve Scherf et al.
# Submitted via: CedeCatalogueitor 2.6.0.6 http://personales.ya.com/cdcatalogueitor
#
DISCID=a808fe0c
DTITLE=Campiña - Jotas Rondas Y Seguidillas De La Comunidad De Madrid
DYEAR=1994
DGENRE=
TTITLE0=Jotas Antiguas De Morata
TTITLE1=Estando Una Señorita
TTITLE2=Seguidillas Y Mayos De Las Mozas
TTITLE3=Alpargatillas
TTITLE4=Romance Del Veneno De Mariana
TTITLE5=Seguidillas Temblecas
TTITLE6=Ronda De Visperas
TTITLE7=El Ama Del Cura
TTITLE8=Pelele De Hogaño
TTITLE9=Vuelve
TTITLE10=Coplas De Navidad
TTITLE11=Seguidillas Y Jotas De Carabaña
EXTD=
EXTT0=
EXTT1=
EXTT2=
EXTT3=
EXTT4=
EXTT5=
EXTT6=
EXTT7=
EXTT8=
EXTT9=
EXTT10=
EXTT11=
PLAYORDER=
